<?xml version="1.0" ?><!DOCTYPE svg  PUBLIC '-//W3C//DTD SVG 1.1//EN'  'http://www.w3.org/Graphics/SVG/1.1/DTD/svg11.dtd'><svg enable-background="new 0 0 512 512" height="512px" id="Layer_1" version="1.1" viewBox="0 0 512 512" width="512px" xml:space="preserve" xmlns="http://www.w3.org/2000/svg" xmlns:xlink="http://www.w3.org/1999/xlink"><path d="M435.207,0.001H76.791C34.5,0.001,0,34.501,0,76.792v358.416C0,477.458,34.5,512,76.791,512h128  c14.104,0,25.604-11.5,25.604-25.625v-89.583c0-14.125-11.5-25.584-25.604-25.584c-4.25,0-8.542,0-12.792,0  c-7.542,0-12.813-5.291-12.813-12.833c0-17.042,0-34.125,0-51.167c0-7.541,5.313-12.833,12.813-12.833c4.25,0,8.542,0,12.792,0  c14.104,0,25.604-11.5,25.604-25.583v-64c0-45,31.771-76.792,76.813-76.792c29.854,0,59.708,0,89.583,0  c7.5,0,12.792,5.25,12.792,12.792c0,17.042,0,34.125,0,51.208c0,7.5-5.271,12.792-12.792,12.792c-21.333,0-42.667,0-64,0  c-14.104,0-25.583,11.5-25.583,25.583c0,12.792,0,25.625,0,38.417c0,14.083,11.479,25.583,25.583,25.583c4.25,0,8.542,0,12.792,0  c7.521,0,12.813,5.292,12.813,12.833c0,17.042,0,34.125,0,51.167c0,7.542-5.271,12.833-12.813,12.833c-4.25,0-8.542,0-12.792,0  c-14.104,0-25.583,11.459-25.583,25.584v89.583c0,14.125,11.479,25.625,25.583,25.625h102.417c42.292,0,76.792-34.542,76.792-76.792  V76.792C511.999,34.501,477.499,0.001,435.207,0.001z M490.666,435.208c0,30.5-24.958,55.458-55.458,55.458H332.791  c-2.333,0-4.271-1.958-4.271-4.291v-89.583c0-2.334,1.938-4.292,4.271-4.292c4.25,0,8.542,0,12.792,0  c19.292,0,34.146-14.833,34.146-34.125c0-17.042,0-34.125,0-51.167c0-19.291-14.854-34.166-34.146-34.166c-4.25,0-8.542,0-12.792,0  c-2.333,0-4.271-1.917-4.271-4.25c0-12.792,0-25.625,0-38.417c0-2.333,1.938-4.25,4.271-4.25c21.333,0,42.667,0,64,0  c19.292,0,34.125-14.833,34.125-34.125c0-17.083,0-34.166,0-51.208c0-19.292-14.833-34.125-34.125-34.125  c-29.875,0-59.729,0-89.583,0c-56.813,0-98.146,41.333-98.146,98.125v64c0,2.333-1.938,4.25-4.271,4.25c-4.25,0-8.542,0-12.792,0  c-19.292,0-34.125,14.875-34.125,34.166c0,17.042,0,34.125,0,51.167c0,19.292,14.833,34.125,34.125,34.125c4.25,0,8.542,0,12.792,0  c2.333,0,4.271,1.958,4.271,4.292v89.583c0,2.333-1.938,4.291-4.271,4.291h-128c-30.521,0-55.458-24.958-55.458-55.458V76.792  c0-30.542,24.938-55.458,55.458-55.458h358.416c30.5,0,55.458,24.916,55.458,55.458V435.208z"/></svg>